<?xml version="1.0" ?><svg viewBox="0 0 128 128" width="64" height="64" xmlns="http://www.w3.org/2000/svg"><title/><g data-name="Cocktail" id="f6239c26-93e3-48d7-b83b-def111c33832"><path d="M66,63.89V103c6.78.17,12,1.21,12,2.47S71.73,108,64,108c-7.13,0-13-1-13.88-2.18a.53.53,0,0,1-.12-.32c0-1.26,5.22-2.3,12-2.47V63.89L31.2,31.38A2,2,0,0,1,32.65,28h62.7a2,2,0,0,1,1.45,3.38Z" fill="#c3e5f1"/><path d="M55.64,44.77a1,1,0,0,1-1.41-.13L52.85,43,40.25,28l-7-8.36a1,1,0,1,1,1.54-1.28L42.87,28l12.6,15,.3.36A1,1,0,0,1,55.64,44.77Z" fill="#bcc4f1"/><polygon fill="#a6b2f1" points="55.47 43 52.85 43 40.25 28 42.87 28 55.47 43"/><path d="M78,36H88s-13,8-24,9-21-4-21-4-3-5,15-6S74,36,78,36Z" fill="#5e74f1"/><path d="M89.52,35.16a.39.39,0,0,1,.33.65L64.09,63l-.09.09L63.91,63,43,40.88s12.82,1,23.93-2.94A58.69,58.69,0,0,1,89.52,35.16Z" fill="#8091f1"/><polygon fill="#323a4a" points="64 63.09 63.91 63 64.09 63 64 63.09"/><path d="M74,105c0,1.1-5.6,2-12.5,2-5,0-9.41-.48-11.38-1.18a.53.53,0,0,1-.12-.32c0-1.26,5.22-2.3,12-2.47v0C68.67,103,74,103.93,74,105Z" fill="#abdef1"/><path d="M43,23.5a4.5,4.5,0,0,1-9,0C34,21,36,20,38.5,20a5.7,5.7,0,0,1,3,.74A3,3,0,0,1,43,23.5Z" fill="#db4d4d"/><path d="M42,22.5a4.5,4.5,0,0,1-7.14,3.64A4.48,4.48,0,0,1,34,23.5C34,21,36,20,38.5,20a5.7,5.7,0,0,1,3,.74A3.31,3.31,0,0,1,42,22.5Z" fill="#fe5959"/><path d="M38.5,21h0a.5.5,0,0,1-.45-.54c0-.24.58-6,4-6a.5.5,0,0,1,0,1c-2.47,0-3,5-3,5A.5.5,0,0,1,38.5,21Z" fill="#db4d4d"/></g></svg>